{
	"asset":{
		"generator":"Khronos glTF Blender I/O v4.0.44",
		"version":"2.0"
	},
	"extensionsUsed":[
		"KHR_materials_specular",
		"KHR_materials_ior"
	],
	"scene":0,
	"scenes":[
		{
			"name":"Scene",
			"nodes":[
				0
			]
		}
	],
	"nodes":[
		{
			"mesh":0,
			"name":"HumanBody",
			"scale":[
				0.8799999952316284,
				1,
				0.8999999761581421
			]
		}
	],
	"materials":[
		{
			"doubleSided":true,
			"extensions":{
				"KHR_materials_specular":{
					"specularFactor":0
				},
				"KHR_materials_ior":{
					"ior":1.4500000476837158
				}
			},
			"name":"default",
			"pbrMetallicRoughness":{
				"baseColorFactor":[
					0.800000011920929,
					0.800000011920929,
					0.800000011920929,
					1
				],
				"metallicFactor":0
			}
		}
	],
	"meshes":[
		{
			"name":"FinalBaseMesh",
			"primitives":[
				{
					"attributes":{
						"POSITION":0,
						"NORMAL":1
					},
					"indices":2,
					"material":0
				}
			]
		}
	],
	"accessors":[
		{
			"bufferView":0,
			"componentType":5126,
			"count":24461,
			"max":[
				5.2582502365112305,
				18.61568832397461,
				1.7252999544143677
			],
			"min":[
				-5.2582502365112305,
				-0.050939951092004776,
				-1.6184780597686768
			],
			"type":"VEC3"
		},
		{
			"bufferView":1,
			"componentType":5126,
			"count":24461,
			"type":"VEC3"
		},
		{
			"bufferView":2,
			"componentType":5123,
			"count":146754,
			"type":"SCALAR"
		}
	],
	"bufferViews":[
		{
			"buffer":0,
			"byteLength":293532,
			"byteOffset":0,
			"target":34962
		},
		{
			"buffer":0,
			"byteLength":293532,
			"byteOffset":293532,
			"target":34962
		},
		{
			"buffer":0,
			"byteLength":293508,
			"byteOffset":587064,
			"target":34963
		}
	],
	"buffers":[
		{
			"byteLength":880572,
			"uri":"human.bin"
		}
	]
}
