{
	"asset":{
		"generator":"Khronos glTF Blender I/O v4.0.44",
		"version":"2.0"
	},
	"extensionsUsed":[
		"KHR_materials_specular",
		"KHR_materials_sheen",
		"KHR_materials_ior"
	],
	"scene":0,
	"scenes":[
		{
			"name":"Scene",
			"nodes":[
				0
			]
		}
	],
	"nodes":[
		{
			"mesh":0,
			"name":"TShirt",
			"translation":[
				0.12612830102443695,
				1.1779619455337524,
				-0.27000001072883606
			]
		}
	],
	"materials":[
		{
			"doubleSided":true,
			"extensions":{
				"KHR_materials_specular":{
					"specularFactor":0.4000000059604645
				},
				"KHR_materials_sheen":{
					"sheenColorFactor":[
						1.0,
						1.0,
						1.0
					],
					"sheenRoughnessFactor":0.5
				},
				"KHR_materials_ior":{
					"ior":1.4500000476837158
				}
			},
			"name":"TShirt_Material",
			"normalTexture":{
				"index":0
			},
			"pbrMetallicRoughness":{
				"baseColorTexture":{
					"index":1
				},
				"metallicRoughnessTexture":{
					"index":2
				}
			}
		}
	],
	"meshes":[
		{
			"name":"Cloth_mesh.002",
			"primitives":[
				{
					"attributes":{
						"POSITION":0,
						"NORMAL":1,
						"TEXCOORD_0":2
					},
					"indices":3,
					"material":0
				}
			]
		}
	],
	"textures":[
		{
			"sampler":0,
			"source":0
		},
		{
			"sampler":0,
			"source":1
		},
		{
			"sampler":0,
			"source":2
		}
	],
	"images":[
		{
			"mimeType":"image/png",
			"name":"basic-tshirt-oversized-men_gltf_thick_normal_1001",
			"uri":"basic-tshirt-oversized-men_gltf_thick_normal_1001.png"
		},
		{
			"mimeType":"image/png",
			"name":"basic-tshirt-oversized-men_gltf_thick_diffuse_1001",
			"uri":"basic-tshirt-oversized-men_gltf_thick_diffuse_1001.png"
		},
		{
			"mimeType":"image/png",
			"name":"basic-tshirt-oversized-men_gltf_thick_metallicroughness_1001",
			"uri":"basic-tshirt-oversized-men_gltf_thick_metallicroughness_1001.png"
		}
	],
	"accessors":[
		{
			"bufferView":0,
			"componentType":5126,
			"count":90286,
			"max":[
				3.113755702972412,
				15.069028854370117,
				2.0107128620147705
			],
			"min":[
				-3.386465072631836,
				7.975709915161133,
				-1.8686537742614746
			],
			"type":"VEC3"
		},
		{
			"bufferView":1,
			"componentType":5126,
			"count":90286,
			"type":"VEC3"
		},
		{
			"bufferView":2,
			"componentType":5126,
			"count":90286,
			"type":"VEC2"
		},
		{
			"bufferView":3,
			"componentType":5125,
			"count":518994,
			"type":"SCALAR"
		}
	],
	"bufferViews":[
		{
			"buffer":0,
			"byteLength":1083432,
			"byteOffset":0,
			"target":34962
		},
		{
			"buffer":0,
			"byteLength":1083432,
			"byteOffset":1083432,
			"target":34962
		},
		{
			"buffer":0,
			"byteLength":722288,
			"byteOffset":2166864,
			"target":34962
		},
		{
			"buffer":0,
			"byteLength":2075976,
			"byteOffset":2889152,
			"target":34963
		}
	],
	"samplers":[
		{
			"magFilter":9729,
			"minFilter":9987
		}
	],
	"buffers":[
		{
			"byteLength":4965128,
			"uri":"t-shirt.bin"
		}
	]
}
